<svg xmlns="http://www.w3.org/2000/svg" width="16" height="16"><path fill="none" stroke="#424242" stroke-width="1.1248916" d="M3.748 13.381.913 11.745a.702.702 0 0 1-.35-.608V7.863a.702.702 0 0 1 .35-.608l2.835-1.637a.702.702 0 0 1 .703 0l2.834 1.637a.702.702 0 0 1 .352.608v3.274a.702.702 0 0 1-.352.608L4.451 13.38a.702.702 0 0 1-.703 0z"/><path fill="#424242" d="m3.91 11.586-1.523-.88a.377.377 0 0 1-.188-.327V8.62a.377.377 0 0 1 .188-.326l1.524-.88a.377.377 0 0 1 .377 0l1.523.88A.377.377 0 0 1 6 8.62v1.76a.377.377 0 0 1-.189.326l-1.523.88a.377.377 0 0 1-.377 0z"/></svg>