<svg xmlns="http://www.w3.org/2000/svg" width="16" height="16"><path fill="none" stroke="#424242" stroke-width=".96795" d="m5.514 15.292-4.192-2.42a1.677 1.677 0 0 1-.838-1.452V6.58a1.677 1.677 0 0 1 .838-1.452l4.192-2.42a1.677 1.677 0 0 1 1.676 0l4.192 2.42a1.677 1.677 0 0 1 .838 1.452v4.84a1.677 1.677 0 0 1-.838 1.452l-4.192 2.42a1.677 1.677 0 0 1-1.676 0z"/><path fill="#424242" d="m5.78 13.289-2.857-1.65a1.143 1.143 0 0 1-.571-.99V7.35a1.143 1.143 0 0 1 .571-.99l2.858-1.649a1.143 1.143 0 0 1 1.142 0l2.858 1.65a1.143 1.143 0 0 1 .571.99v3.299a1.143 1.143 0 0 1-.571.99l-2.858 1.649a1.143 1.143 0 0 1-1.142 0z"/></svg>